<svg width="324" height="166" viewBox="0 0 324 166" fill="none" xmlns="http://www.w3.org/2000/svg">
<rect width="324" height="166" fill="#F5F5F5"/>
<path fill-rule="evenodd" clip-rule="evenodd" d="M53.283 63.6765C53.283 42.6998 70.3028 25.6948 91.2978 25.6948C112.293 25.6948 129.313 42.6998 129.313 63.6765C129.313 76.047 123.393 87.0363 114.231 93.9712C111.95 95.6976 109.467 97.1728 106.826 98.3554L91.2978 63.6765L75.7699 98.3554C73.3655 97.279 71.0934 95.9604 68.9848 94.4305C59.4699 87.5273 53.283 76.3238 53.283 63.6765Z" fill="#E1B729" fill-opacity="0.13"/>
<path fill-rule="evenodd" clip-rule="evenodd" d="M71.5384 95.7422C71.8418 94.6433 72.9795 93.9981 74.0794 94.3013L97.2343 100.683L108.481 94.4838C109.48 93.9331 110.736 94.2958 111.288 95.294C111.839 96.2922 111.476 97.5478 110.477 98.0986L98.4939 104.704C98.0217 104.964 97.4663 105.03 96.9464 104.887L72.9806 98.2811C71.8807 97.9779 71.235 96.8412 71.5384 95.7422Z" fill="#002C73"/>
<path fill-rule="evenodd" clip-rule="evenodd" d="M62.8639 115.136C63.1728 114.039 64.3137 113.399 65.4121 113.708L99.847 123.384L116.73 113.896C117.724 113.337 118.984 113.689 119.544 114.683C120.103 115.676 119.75 116.935 118.756 117.494L101.126 127.402C100.647 127.671 100.082 127.739 99.5534 127.59L64.2934 117.682C63.195 117.373 62.555 116.233 62.8639 115.136Z" fill="#002C73"/>
<path fill-rule="evenodd" clip-rule="evenodd" d="M90.6532 60.1797C92.6945 59.953 94.5331 61.4226 94.7598 63.4621L104.1 147.486C104.327 149.526 102.856 151.363 100.814 151.59C98.7732 151.816 96.9346 150.347 96.7079 148.307L87.3677 64.2831C87.1409 62.2436 88.6119 60.4064 90.6532 60.1797Z" fill="#F5F5F5"/>
<path d="M76.9939 95.8094L67.4299 116.314L99.2689 125.446L116.35 116.314L106.626 95.4655L96.1375 101.229L76.9939 95.8094Z" fill="#002C73" fill-opacity="0.07"/>
<path d="M91.8901 63.8726L76.9939 95.8094L96.1375 101.229L106.626 95.4655L91.8901 63.8726Z" fill="#002C73" fill-opacity="0.12"/>
<path fill-rule="evenodd" clip-rule="evenodd" d="M90.8357 61.821C91.9697 61.6951 92.9912 62.5115 93.1171 63.6446L102.457 147.669C102.583 148.802 101.766 149.822 100.632 149.948C99.498 150.074 98.4766 149.258 98.3506 148.125L89.0104 64.1007C88.8844 62.9676 89.7016 61.947 90.8357 61.821Z" fill="#002C73"/>
<path fill-rule="evenodd" clip-rule="evenodd" d="M91.8901 61.8084C92.6932 61.8084 93.4235 62.2734 93.7627 63.0007L127.88 136.146C128.362 137.179 127.914 138.407 126.88 138.889C125.845 139.37 124.616 138.923 124.134 137.89L91.8901 68.7595L59.6459 137.89C59.1639 138.923 57.9347 139.37 56.9005 138.889C55.8663 138.407 55.4186 137.179 55.9006 136.146L90.0174 63.0007C90.3567 62.2734 91.087 61.8084 91.8901 61.8084Z" fill="#002C73"/>
<path fill-rule="evenodd" clip-rule="evenodd" d="M91.2285 28.8772C71.8941 29.2881 56.5521 45.288 56.9632 64.6158C57.1907 75.3136 62.1941 84.7865 69.9021 91.0478C70.7875 91.7669 70.9217 93.067 70.2018 93.9516C69.482 94.8362 68.1808 94.9703 67.2955 94.2511C58.6862 87.2577 53.0865 76.6636 52.8321 64.7036C52.3726 43.0979 69.5231 25.2091 91.1407 24.7497C104.422 24.4675 116.297 30.8315 123.585 40.7831C124.259 41.7032 124.059 42.9948 123.138 43.668C122.217 44.3412 120.924 44.1411 120.251 43.221C113.725 34.3099 103.104 28.6249 91.2285 28.8772ZM126.419 77.7818C127.451 78.2675 127.894 79.4974 127.408 80.5288C125.839 83.8561 123.815 86.9285 121.415 89.6644C120.97 90.171 120.513 90.6661 120.043 91.1492C118.971 92.2516 117.834 93.2914 116.638 94.2624C115.752 94.9813 114.451 94.847 113.732 93.9622C113.012 93.0775 113.146 91.7774 114.032 91.0584C115.102 90.1895 116.12 89.2589 117.08 88.272C117.549 87.7896 118.004 87.2937 118.445 86.7851C119.077 86.0559 119.68 85.3005 120.25 84.5208C120.255 84.5148 120.259 84.5089 120.264 84.503C121.573 82.712 122.716 80.7932 123.67 78.7697C124.156 77.7383 125.387 77.296 126.419 77.7818Z" fill="#FFD80D"/>
<path d="M97.0827 64.2957C97.0827 67.1458 94.7702 69.4563 91.9176 69.4563C89.065 69.4563 86.7526 67.1458 86.7526 64.2957C86.7526 61.4457 89.065 59.1352 91.9176 59.1352C94.7702 59.1352 97.0827 61.4457 97.0827 64.2957Z" fill="white"/>
<path fill-rule="evenodd" clip-rule="evenodd" d="M91.9176 65.3279C92.4881 65.3279 92.9506 64.8658 92.9506 64.2957C92.9506 63.7257 92.4881 63.2636 91.9176 63.2636C91.3471 63.2636 90.8846 63.7257 90.8846 64.2957C90.8846 64.8658 91.3471 65.3279 91.9176 65.3279ZM91.9176 69.4563C94.7702 69.4563 97.0827 67.1458 97.0827 64.2957C97.0827 61.4457 94.7702 59.1352 91.9176 59.1352C89.065 59.1352 86.7526 61.4457 86.7526 64.2957C86.7526 67.1458 89.065 69.4563 91.9176 69.4563Z" fill="#002C73"/>
<path fill-rule="evenodd" clip-rule="evenodd" d="M266.452 88.6599C267.002 89.6628 266.637 90.9223 265.635 91.4732L253.514 98.143L269.604 102.461C270.707 102.758 271.362 103.894 271.066 104.999C270.771 106.104 269.636 106.76 268.533 106.464L247.471 100.811C246.655 100.592 246.054 99.898 245.953 99.0582C245.851 98.2183 246.27 97.4011 247.01 96.9938L263.644 87.8416C264.645 87.2907 265.902 87.6571 266.452 88.6599Z" fill="#002C73"/>
<path fill-rule="evenodd" clip-rule="evenodd" d="M199.752 70.1139C200.331 70.3515 200.772 70.8389 200.95 71.4396L204.619 83.7733L218.96 75.8509C219.96 75.2983 221.218 75.6625 221.77 76.6644C222.321 77.6663 221.958 78.9265 220.958 79.4791L204.369 88.6434C203.821 88.9462 203.166 88.9841 202.587 88.7466C202.007 88.5091 201.567 88.0217 201.388 87.4209L197.719 75.0873L183.379 83.0097C182.378 83.5623 181.12 83.198 180.569 82.1961C180.017 81.1942 180.381 79.934 181.381 79.3814L197.969 70.2171C198.517 69.9144 199.173 69.8764 199.752 70.1139Z" fill="#002C73"/>
<path fill-rule="evenodd" clip-rule="evenodd" d="M165.97 61.6288C166.438 61.3702 166.988 61.3032 167.504 61.4417L188.494 67.0755C189.598 67.3716 190.252 68.5076 189.957 69.6128C189.661 70.718 188.527 71.3739 187.424 71.0778L167.238 65.66L155.875 71.9373L171.101 76.0238L174.17 74.3287L168.634 72.8431C167.531 72.5469 166.876 71.4109 167.172 70.3057C167.467 69.2005 168.602 68.5446 169.705 68.8408L180.2 71.6576C181.015 71.8764 181.616 72.5694 181.718 73.4085C181.82 74.2476 181.403 75.0647 180.664 75.4729L172.369 80.0551C171.901 80.3137 171.352 80.3807 170.835 80.2421L149.845 74.6084C149.03 74.3896 148.429 73.6967 148.327 72.8575C148.225 72.0184 148.642 71.2014 149.381 70.7931L165.97 61.6288Z" fill="#002C73"/>
<path fill-rule="evenodd" clip-rule="evenodd" d="M157.39 59.3854C157.942 60.3873 157.578 61.6475 156.578 62.2001L139.989 71.3644C138.989 71.917 137.731 71.5527 137.179 70.5508C136.628 69.5489 136.991 68.2887 137.992 67.7361L154.58 58.5718C155.58 58.0192 156.838 58.3835 157.39 59.3854Z" fill="#002C73"/>
<path fill-rule="evenodd" clip-rule="evenodd" d="M122.639 50.4986C123.161 49.9606 123.933 49.7477 124.657 49.9419L145.647 55.5757C146.751 55.8718 147.405 57.0078 147.11 58.113C146.814 59.2182 145.68 59.8741 144.577 59.578L127.16 54.9035L130.506 66.1495C130.72 66.8687 130.529 67.6476 130.006 68.1856C129.484 68.7236 128.712 68.9365 127.988 68.7423L106.998 63.1086C105.894 62.8124 105.24 61.6764 105.535 60.5712C105.831 59.466 106.965 58.8101 108.068 59.1062L125.485 63.7807L122.139 52.5347C121.925 51.8155 122.117 51.0366 122.639 50.4986Z" fill="#002C73"/>
<path fill-rule="evenodd" clip-rule="evenodd" d="M230.511 78.9513C230.98 78.6927 231.529 78.6257 232.046 78.7643L253.036 84.398C253.851 84.6168 254.452 85.3097 254.554 86.1489C254.656 86.988 254.239 87.8051 253.5 88.2133L236.911 97.3776C235.911 97.9302 234.653 97.566 234.101 96.5641C233.55 95.5622 233.913 94.302 234.913 93.7494L238.711 91.6513L223.486 87.5647L215.921 91.7439C214.921 92.2965 213.663 91.9322 213.111 90.9303C212.559 89.9284 212.923 88.6682 213.923 88.1157L230.511 78.9513ZM228.711 84.6777L243.937 88.7642L247.006 87.0691L231.78 82.9826L228.711 84.6777Z" fill="#002C73"/>
<path fill-rule="evenodd" clip-rule="evenodd" d="M135.125 30.6341C135.42 29.5289 136.554 28.873 137.658 29.1691L156.027 34.0995C157.131 34.3956 157.786 35.5316 157.49 36.6368C157.194 37.742 156.06 38.3979 154.957 38.1018L146.655 35.8736L132.483 44.9853C131.522 45.6034 130.242 45.3238 129.625 44.3609C129.008 43.398 129.287 42.1164 130.249 41.4983L141.252 34.4236L136.587 33.1715C135.484 32.8753 134.829 31.7393 135.125 30.6341Z" fill="#002C73"/>
<path fill-rule="evenodd" clip-rule="evenodd" d="M167.573 37.7569C168.19 38.7198 167.911 40.0014 166.95 40.6195L163.417 42.891L176.384 46.3713L183.085 42.0628C184.046 41.4447 185.326 41.7243 185.943 42.6872C186.56 43.6501 186.281 44.9317 185.319 45.5498L170.378 55.1561C169.416 55.7742 168.137 55.4946 167.52 54.5317C166.903 53.5688 167.182 52.2872 168.143 51.6691L171.676 49.3976L158.71 45.9173L152.008 50.2258C151.047 50.8439 149.767 50.5643 149.15 49.6014C148.533 48.6385 148.812 47.3569 149.774 46.7388L164.715 37.1325C165.677 36.5144 166.956 36.794 167.573 37.7569Z" fill="#002C73"/>
<path fill-rule="evenodd" clip-rule="evenodd" d="M194.546 45.1389C195.036 44.8238 195.636 44.7302 196.198 44.8812L214.568 49.8115C215.671 50.1077 216.326 51.2437 216.03 52.3489C215.734 53.4541 214.6 54.11 213.497 53.8138L196.011 49.1206L193.247 50.8974L207.097 54.6147C208.2 54.9108 208.855 56.0469 208.559 57.1521C208.264 58.2573 207.13 58.9132 206.026 58.617L188.54 53.9237L185.776 55.7006L199.626 59.4179C200.729 59.714 201.384 60.85 201.089 61.9552C200.793 63.0604 199.659 63.7163 198.555 63.4202L180.186 58.4899C179.395 58.2776 178.803 57.6179 178.678 56.8074C178.552 55.9969 178.915 55.1883 179.604 54.7452L194.546 45.1389Z" fill="#002C73"/>
</svg>
